<svg id="logo-desk" xmlns="http://www.w3.org/2000/svg" viewBox="0 0 455.13 90.12">
    <path d="M296.77,35.53h-2.89l-1.75,8.12h-1.34l1.74-8.12h-2.89l.25-1.18H297Z" style="fill:#4d4d4d"></path>
    <path d="M300.15,34.35h5.05l-.27,1.18h-3.67l-.6,2.71h3.45l-.23,1.18h-3.49l-.68,3.06h3.9l-.25,1.17h-5.25Z" style="fill:#4d4d4d"></path>
    <path d="M309.21,34.35h1.34l-1.76,8.13h3.87l-.24,1.17H307.2Z" style="fill:#4d4d4d"></path>
    <path d="M317.6,34.35h1.34l-1.75,8.13h3.86l-.24,1.17h-5.22Z" style="fill:#4d4d4d"></path>
    <path d="M326.07,34.35h5.05l-.27,1.18h-3.67l-.6,2.71H330l-.23,1.18h-3.49l-.68,3.06h3.9l-.25,1.17H324Z" style="fill:#4d4d4d"></path>
    <path d="M335.3,34.35h2L338.56,42l4.53-7.61h2.19l-2,9.3H342l1.71-8h0l-4.78,8h-1.29l-1.3-8h0l-1.79,8h-1.29Z" style="fill:#4d4d4d"></path>
    <path d="M349.51,34.35h5.05l-.27,1.18h-3.67l-.6,2.71h3.45l-.23,1.18h-3.49l-.68,3.06H353l-.26,1.17h-5.24Z" style="fill:#4d4d4d"></path>
    <path d="M358.54,34.35h1.76l2.63,7.8h0l1.65-7.8h1.27l-2,9.3h-1.71l-2.63-7.72h0l-1.59,7.72h-1.28Z" style="fill:#4d4d4d"></path>
    <path d="M375.75,35.53h-2.89l-1.74,8.12h-1.35l1.75-8.12h-2.89l.25-1.18H376Z" style="fill:#4d4d4d"></path>
    <path d="M384.5,34.35h2.32a5.37,5.37,0,0,1,1.05.12,3,3,0,0,1,1,.4,2.19,2.19,0,0,1,.7.75,2.29,2.29,0,0,1,.28,1.16,3.31,3.31,0,0,1-.25,1.27,2.69,2.69,0,0,1-.74,1,3.42,3.42,0,0,1-1.21.65,5.21,5.21,0,0,1-1.65.24h-1.34l-.81,3.71h-1.33Zm.39,4.41h.71a8.72,8.72,0,0,0,1-.06,3,3,0,0,0,.89-.26,1.7,1.7,0,0,0,.64-.55,1.58,1.58,0,0,0,.24-.91,1.44,1.44,0,0,0-.17-.77,1,1,0,0,0-.46-.44,1.88,1.88,0,0,0-.67-.2,7,7,0,0,0-.8,0h-.69Z" style="fill:#4d4d4d"></path>
    <path d="M393.63,34.35H395l-1.76,8.13h3.87l-.24,1.17h-5.22Z" style="fill:#4d4d4d"></path>
    <path d="M408.11,39.82a5.77,5.77,0,0,1-1.48,3,3.63,3.63,0,0,1-2.6.94,3.71,3.71,0,0,1-1.6-.3,2.93,2.93,0,0,1-1-.73,2.5,2.5,0,0,1-.52-.92,2.94,2.94,0,0,1-.15-.86,5.29,5.29,0,0,1,.12-1.06c.07-.38.14-.72.2-1l1-4.57h1.33L402.19,40a4.53,4.53,0,0,0-.1.83,2,2,0,0,0,.15.8,1.63,1.63,0,0,0,.42.58,2.09,2.09,0,0,0,.64.35,2.64,2.64,0,0,0,.81.12,2.1,2.1,0,0,0,1.23-.34,2.86,2.86,0,0,0,.8-.86,4.77,4.77,0,0,0,.5-1.15c.13-.42.23-.83.31-1.22l1-4.72h1.34Z" style="fill:#4d4d4d"></path>
    <path d="M417.24,35.82a3.85,3.85,0,0,0-.74-.33,3.43,3.43,0,0,0-.95-.12,3,3,0,0,0-.66.07,1.87,1.87,0,0,0-.58.24,1.24,1.24,0,0,0-.43.45,1.31,1.31,0,0,0-.17.69,1,1,0,0,0,.24.66,2.71,2.71,0,0,0,.58.53c.24.17.49.33.77.49a5.15,5.15,0,0,1,.77.55,2.8,2.8,0,0,1,.58.74,2.08,2.08,0,0,1,.23,1,3.31,3.31,0,0,1-.18,1.05,2.91,2.91,0,0,1-.58,1,3.09,3.09,0,0,1-1,.7,3.72,3.72,0,0,1-1.45.26,6,6,0,0,1-1.42-.15,8.43,8.43,0,0,1-1.17-.38l.42-1.23a3.85,3.85,0,0,0,.94.43,3.38,3.38,0,0,0,1,.16,2.44,2.44,0,0,0,.91-.15,1.71,1.71,0,0,0,.63-.38,1.6,1.6,0,0,0,.36-.54,1.7,1.7,0,0,0,.11-.58,1.32,1.32,0,0,0-.23-.79,2.6,2.6,0,0,0-.59-.55,7,7,0,0,0-.76-.47,4.57,4.57,0,0,1-.77-.53,2.66,2.66,0,0,1-.59-.73,2.26,2.26,0,0,1-.23-1.07,2.34,2.34,0,0,1,.27-1.14,2.79,2.79,0,0,1,.7-.83,2.86,2.86,0,0,1,1-.51,3.66,3.66,0,0,1,1.13-.18,5.88,5.88,0,0,1,2.24.44Z" style="fill:#4d4d4d"></path>
    <path d="M293.65,59.32a.47.47,0,0,1-.17,0h-.18a3.89,3.89,0,0,1-2.91-1,4,4,0,0,1-1-2.94,6.18,6.18,0,0,1,.34-2,5.86,5.86,0,0,1,1-1.83,5.09,5.09,0,0,1,1.64-1.33,4.83,4.83,0,0,1,2.26-.52,3.78,3.78,0,0,1,2.78,1,3.74,3.74,0,0,1,1,2.77,7.69,7.69,0,0,1-.22,1.79,6.33,6.33,0,0,1-.66,1.63,5.33,5.33,0,0,1-1.09,1.32,4.36,4.36,0,0,1-1.52.85l1.65,1.82h-1.69Zm-2.84-3.87a3,3,0,0,0,.64,2,2.37,2.37,0,0,0,1.91.75,2.86,2.86,0,0,0,1.53-.42A3.91,3.91,0,0,0,296,56.69a4.63,4.63,0,0,0,.72-1.44,5.4,5.4,0,0,0,.25-1.56,3.12,3.12,0,0,0-.6-2.06,2.18,2.18,0,0,0-1.8-.72,3.1,3.1,0,0,0-1.55.38,3.73,3.73,0,0,0-1.2,1,4.68,4.68,0,0,0-.77,1.45A5.11,5.11,0,0,0,290.81,55.45Z" style="fill:#4d4d4d"></path>
    <path d="M309.11,55.36a5.77,5.77,0,0,1-1.47,3,3.64,3.64,0,0,1-2.6.94,3.79,3.79,0,0,1-1.61-.3,3,3,0,0,1-1-.73,2.5,2.5,0,0,1-.52-.92,2.94,2.94,0,0,1-.15-.86,6.06,6.06,0,0,1,.11-1.06l.21-1,1-4.56h1.33l-1.2,5.6a4.73,4.73,0,0,0-.11.83,1.84,1.84,0,0,0,.16.8,1.63,1.63,0,0,0,.42.58,2.09,2.09,0,0,0,.64.35,2.64,2.64,0,0,0,.81.12,2,2,0,0,0,1.22-.34,2.77,2.77,0,0,0,.81-.86,5.19,5.19,0,0,0,.5-1.15c.12-.42.23-.83.31-1.22l1-4.71h1.33Z" style="fill:#4d4d4d"></path>
    <path d="M314.59,49.9h1.58l-1.84,3.26h-1.27Z" style="fill:#4d4d4d"></path>
    <path d="M325.9,55.36a5.77,5.77,0,0,1-1.48,3,3.63,3.63,0,0,1-2.6.94,3.71,3.71,0,0,1-1.6-.3,2.93,2.93,0,0,1-1-.73,2.5,2.5,0,0,1-.52-.92,2.94,2.94,0,0,1-.15-.86,5.29,5.29,0,0,1,.12-1.06c.07-.38.14-.72.2-1l1-4.56h1.33L320,55.5a4.53,4.53,0,0,0-.1.83,2,2,0,0,0,.15.8,1.63,1.63,0,0,0,.42.58,2.09,2.09,0,0,0,.64.35,2.64,2.64,0,0,0,.81.12,2.1,2.1,0,0,0,1.23-.34,2.86,2.86,0,0,0,.8-.86,4.77,4.77,0,0,0,.5-1.15c.13-.42.23-.83.31-1.22l1-4.71h1.34Z" style="fill:#4d4d4d"></path>
    <path d="M331.13,49.9h1.76l2.62,7.79h0l1.65-7.79h1.27l-2,9.29h-1.72l-2.62-7.72h0l-1.58,7.72H329.2Z" style="fill:#4d4d4d"></path>
    <path d="M342.59,49.9h5l-.26,1.17h-3.68l-.6,2.71h3.45L346.32,55h-3.49L342.15,58h3.9l-.25,1.17h-5.25Z" style="fill:#4d4d4d"></path>
    <path d="M357.16,49.9h5l-.27,1.17h-3.68l-.6,2.71h3.45L360.89,55H357.4L356.72,58h3.9l-.25,1.17h-5.25Z" style="fill:#4d4d4d"></path>
    <path d="M366.19,49.9H368l2.62,7.79h0l1.65-7.79h1.26l-2,9.29h-1.72l-2.62-7.72h0l-1.58,7.72h-1.28Z" style="fill:#4d4d4d"></path>
    <path d="M383.4,51.07h-2.89l-1.75,8.12h-1.34l1.74-8.12h-2.89l.26-1.17h7.12Z" style="fill:#4d4d4d"></path>
    <path d="M386.73,49.9h1.82l1.09,0a3.62,3.62,0,0,1,1.14.24,2.19,2.19,0,0,1,.89.68,2.06,2.06,0,0,1,.36,1.31,2.26,2.26,0,0,1-.18.9,2.42,2.42,0,0,1-.49.76,2.49,2.49,0,0,1-.72.56,2.62,2.62,0,0,1-.88.3,1.17,1.17,0,0,1,.45.48,3.59,3.59,0,0,1,.3.69,7.44,7.44,0,0,1,.2.74c.05.25.1.47.15.64l.5,2H390l-.56-2.44c-.09-.37-.17-.67-.24-.89a1.72,1.72,0,0,0-.26-.51.59.59,0,0,0-.32-.23,1.51,1.51,0,0,0-.44-.06h-1.19l-.86,4.13h-1.34Zm.48,4h1.05a4.24,4.24,0,0,0,.77-.07,2.47,2.47,0,0,0,.77-.24,1.57,1.57,0,0,0,.58-.47,1.17,1.17,0,0,0,.24-.76,1.15,1.15,0,0,0-.4-1,2.12,2.12,0,0,0-1.18-.27h-1.23Z" style="fill:#4d4d4d"></path>
    <path d="M396.65,49.9h5.05l-.27,1.17h-3.67l-.6,2.71h3.45L400.38,55h-3.49L396.21,58h3.9l-.25,1.17h-5.25Z" style="fill:#4d4d4d"></path>
    <path d="M405.72,49.9H408a5.35,5.35,0,0,1,1,.11,3,3,0,0,1,1,.4,2.15,2.15,0,0,1,1,1.91,3.3,3.3,0,0,1-.24,1.27,2.69,2.69,0,0,1-.74,1,3.42,3.42,0,0,1-1.21.65,5.23,5.23,0,0,1-1.66.24h-1.33L405,59.19H403.7Zm.39,4.4h.7a8.47,8.47,0,0,0,1-.06,3.05,3.05,0,0,0,.9-.26,1.7,1.7,0,0,0,.64-.55,1.58,1.58,0,0,0,.24-.91,1.54,1.54,0,0,0-.17-.77,1.08,1.08,0,0,0-.46-.44,2.19,2.19,0,0,0-.67-.2,7,7,0,0,0-.8,0h-.7Z" style="fill:#4d4d4d"></path>
    <path d="M414.87,49.9h1.83l1.09,0a3.5,3.5,0,0,1,1.13.24,1.94,1.94,0,0,1,1.25,2,2.26,2.26,0,0,1-.18.9,2.58,2.58,0,0,1-.48.76,2.78,2.78,0,0,1-1.6.86,1.17,1.17,0,0,1,.45.48,3.59,3.59,0,0,1,.3.69c.08.25.14.5.2.74s.1.47.14.64l.51,2H418.1l-.56-2.44a9.08,9.08,0,0,0-.25-.89,2,2,0,0,0-.25-.51.61.61,0,0,0-.33-.23,1.42,1.42,0,0,0-.44-.06h-1.18l-.87,4.13h-1.33Zm.48,4h1.06a4.4,4.4,0,0,0,.77-.07,2.41,2.41,0,0,0,.76-.24,1.6,1.6,0,0,0,.59-.47,1.23,1.23,0,0,0,.23-.76,1.13,1.13,0,0,0-.4-1,2.06,2.06,0,0,0-1.17-.27H416Z" style="fill:#4d4d4d"></path>
    <path d="M424.7,49.9h1.35l-2,9.29H422.7Z" style="fill:#4d4d4d"></path>
    <path d="M434,51.36a4,4,0,0,0-.75-.33,3.43,3.43,0,0,0-.95-.12,2.81,2.81,0,0,0-.65.07,1.83,1.83,0,0,0-.59.24,1.33,1.33,0,0,0-.43.45,1.31,1.31,0,0,0-.16.69,1,1,0,0,0,.23.66,2.55,2.55,0,0,0,.59.53c.23.17.49.33.76.49a4.68,4.68,0,0,1,.77.55,2.8,2.8,0,0,1,.58.74,2.08,2.08,0,0,1,.24,1,3.33,3.33,0,0,1-.19,1.05,2.76,2.76,0,0,1-.58,1,3,3,0,0,1-1,.7,3.67,3.67,0,0,1-1.44.26A6,6,0,0,1,429,59.2a8.43,8.43,0,0,1-1.17-.38l.42-1.23a3.85,3.85,0,0,0,.94.43,3.43,3.43,0,0,0,1,.16,2.53,2.53,0,0,0,.92-.15,1.67,1.67,0,0,0,.62-.38,1.35,1.35,0,0,0,.36-.54,1.49,1.49,0,0,0,.11-.58,1.25,1.25,0,0,0-.23-.79,2.55,2.55,0,0,0-.58-.55,7.16,7.16,0,0,0-.77-.47,4.57,4.57,0,0,1-.77-.53,2.46,2.46,0,0,1-.58-.73,2.14,2.14,0,0,1-.24-1.07,2.34,2.34,0,0,1,.27-1.14,2.79,2.79,0,0,1,.7-.83,2.91,2.91,0,0,1,1-.51,3.55,3.55,0,0,1,1.12-.18,5.88,5.88,0,0,1,2.24.44Z" style="fill:#4d4d4d"></path>
    <path d="M438.62,49.9h5.05l-.27,1.17h-3.67l-.6,2.71h3.45L442.35,55h-3.49L438.18,58h3.9l-.25,1.17h-5.25Z" style="fill:#4d4d4d"></path>
    <path d="M452.09,57.7h1.49l-.31,1.49h-1.49Zm1.66-7.8h1.58l-1.66,6.68h-1.21Z" style="fill:#4d4d4d"></path>
    <path d="M37.78,19.83h-.12C36.79,20,16.2,22.75,10.44,32.7c-8.67,13.23,2.2,25.57,2.31,25.7l.31.34L47,59l-1.25-1.67c-.11-.14-9.94-13.49-1.64-23.19,8.59-10,25.07-12.6,25.23-12.62l-.17-2.06Zm22.74,1.78c-5.67,1.9-12.94,5.3-17.94,11.14A15.62,15.62,0,0,0,38.75,43.2c0,5.77,2.71,11.07,4.28,13.66l-29-.2a21.73,21.73,0,0,1-4.87-13,17.77,17.77,0,0,1,3.07-9.87c5.21-9,25-11.78,25.67-11.88Z" style="fill:#009ee2"></path>
    <path d="M76.61,32.27l-33.52.17,1.27,1.65c.1.14,10.08,13.38,1.88,23.17C37.75,67.4,21.31,70.15,21.14,70.18l.19,2.06,31.49-.79h.06c.87-.13,21.43-3.15,27.08-13.17,8.53-13.33-2.46-25.54-2.58-25.66l-.31-.34Zm-.46,2.07c1.12,1.35,5,6.48,5,13.14a17.69,17.69,0,0,1-3,9.72c-5.11,9.07-24.85,12.08-25.55,12.18L30,70c5.65-2,12.88-5.46,17.82-11.36A15.62,15.62,0,0,0,51.54,48.3c0-5.85-2.81-11.2-4.42-13.81Z" style="fill:#009ee2"></path>
    <path d="M.19,45.06A45.06,45.06,0,1,0,45.25,0,45.12,45.12,0,0,0,.19,45.06Zm4.66,0a40.4,40.4,0,1,1,40.4,40.39A40.43,40.43,0,0,1,4.85,45.06Z" style="fill:#009ee2"></path>
    <path d="M142.63,32.14c-1.07-6.71-4.68-11.06-12.16-11.77h-7.55a10.58,10.58,0,0,0-1.67.15c-6.54.95-12.29,5-16.83,13.5-2.68,7.18-4.55,14.29-4.68,21.16v2.52c.73,6.55,4.48,10.26,10.22,12.08h9.69l1.6-.24a23.19,23.19,0,0,0,15.9-12C141,48.71,143.43,40.19,142.63,32.14ZM130.47,49.66c-2,5.29-4.74,9.39-9.22,11.21a6.85,6.85,0,0,1-1.33.39c-1.61,0-3.21-.08-4.81-.15-5.35-1.27-5.68-6.08-5.28-11.45q1-4.62,2-9.24c2.21-6,5.21-10.1,9.42-11.28a2.77,2.77,0,0,0,.8-.16h5.82c2.67.08,3.87,2.84,4.87,6.08C132.94,40.74,132.07,44.22,130.47,49.66Z" style="fill:#009ee2"></path>
    <path d="M199.88,21.4l-1.67,9.08-9.48-.16L180,69.79H171l8.42-39.47c-1.94.08-3.88.08-5.82.16.07-3.79-1.27-7.34-5.28-8.37v-.87Z" style="fill:#009ee2"></path>
    <path d="M138.42,21.4c7.48-.08,15-.08,22.45-.16,7.81,1,10.29,4.5,10.35,9.08-.87,9.63-3.87,17-11.75,19.5l5.54,20L154.92,70l-4.54-19.26-8-.08,1.87-8.69h12c6.15-1.74,8.22-11.14.87-11.61H144.64C144.1,26.77,142,23.77,138.42,21.4Z" style="fill:#009ee2"></path>
    <path d="M267.16,21.4l-1.8,8.76h-15.5c-4.28.48-7.75,3.48-10.09,10.26-.8,3.08-1.67,6.16-2.48,9.24-.93,6.08-.86,11.37,6,11.05l15,.16-1.67,8.92H237.9c-10.42-2.69-11.69-10.66-10.36-20.13.74-3.08,1.47-6.16,2.21-9.24,3.34-11.6,10.49-18.31,22.24-19.18Z" style="fill:#009ee2"></path>
    <path d="M232,21.24h-14.1c-12.42.16-19.7,7.35-23.44,19.34-.67,3.08-1.34,5.92-2.07,8.92-2,12.71,2,19.5,12,20.29L221,69.63l1.94-8.92H208.17c-5.55.47-7.55-3.16-6-11.05h23.38l2-9.24h-23c1.48-5.76,4.55-9.47,10-10.1h15.36Z" style="fill:#009ee2"></path>
    <path d="M104.84,79.71a3.48,3.48,0,0,0-2.16-.66c-1.89,0-3.09,1.75-3.09,3.92,0,1.49.87,2.68,2.2,2.68a1.81,1.81,0,0,0,.77-.09l.43-2.43h-1.65l.26-1.45h3.15l-.89,5a5.48,5.48,0,0,1-2.08.41C99.49,87.1,98,85.86,98,83c0-3.36,1.86-5.42,4.66-5.42a6.35,6.35,0,0,1,2.6.51Z" style="fill:#009ee2"></path>
    <path d="M131.75,79.21h.65c.63,0,1.33,0,1.33,1,0,1.22-1,1.52-1.85,1.52h-.56Zm-2.95,7.73h1.56l.68-3.81h.59c.85,0,.8.68,1,1.65l.38,2.16h1.63l-.74-3.69c-.1-.5-.37-.82-.79-.85v0a2.24,2.24,0,0,0,2.27-2.45c0-2.2-1.66-2.17-3.1-2.17h-1.83Z" style="fill:#009ee2"></path>
    <path d="M163.9,79.05c1.12,0,1.66,1,1.66,2.25,0,1.83-1,4.35-2.78,4.35-1.12,0-1.63-1.07-1.63-2.26C161.15,81.53,162.08,79.05,163.9,79.05Zm0-1.45a3.84,3.84,0,0,0-3.19,1.71,6.75,6.75,0,0,0-1.23,4c0,2.19,1.15,3.82,3.06,3.82a4,4,0,0,0,3.3-1.54,6.82,6.82,0,0,0,1.3-4.07C167.18,79.05,166.05,77.6,163.94,77.6Z" style="fill:#009ee2"></path>
    <path d="M194.31,77.76l-.8,4.35c-.25,1.29-.66,3.54,1.06,3.54s1.91-1.72,2.18-3.24l.85-4.65h1.54l-1,5.55c-.44,2.36-1.38,3.79-3.54,3.79-2.54,0-3.16-1.74-2.71-4.36l.9-5Z" style="fill:#009ee2"></path>
    <path d="M225.4,79.21h.49c.67,0,1.31.19,1.31,1.13A1.63,1.63,0,0,1,225.46,82h-.56Zm-.76,4.24h.9a3.12,3.12,0,0,0,3.28-3.32c0-2.29-2-2.38-3.41-2.38H224.1l-1.65,9.18H224Z" style="fill:#009ee2"></path>
    <rect x="251.46" y="45.34" width="49.88" height="0.5" transform="translate(172.29 305.74) rotate(-77.59)" style="fill:#4d4d4d"></rect>
</svg>